<?xml version="1.0" encoding="UTF-8" standalone="no"?>
<!DOCTYPE svg PUBLIC "-//W3C//DTD SVG 1.1//EN" "http://www.w3.org/Graphics/SVG/1.1/DTD/svg11.dtd">
<svg width="100%" height="100%" viewBox="0 0 1920 1080" version="1.1" xmlns="http://www.w3.org/2000/svg" xmlns:xlink="http://www.w3.org/1999/xlink" xml:space="preserve" xmlns:serif="http://www.serif.com/" style="fill-rule:evenodd;clip-rule:evenodd;stroke-linecap:round;stroke-linejoin:round;stroke-miterlimit:1.5;">
    <g id="Ebene1">
        <g transform="matrix(1,0,0,1,-362.006,-138.389)">
            <text x="857.198px" y="782.069px" style="font-family:'Raleway-Medium', 'Raleway';font-weight:500;font-size:288px;fill:white;">N<tspan x="1076.37px " y="782.069px ">o</tspan>de<tspan x="1570px 1714.86px " y="782.069px 782.069px ">To</tspan>ols</text>
        </g>
        <g id="NT_Logo.afdesign" transform="matrix(0.612335,0,0,0.612335,242.919,540)">
            <g transform="matrix(1,0,0,1,-540,-540)">
                <g id="Light">
                    <g transform="matrix(0.429967,0,0,0.457668,132.457,163.044)">
                        <path d="M707.974,313.448L947.848,451.94L947.848,728.922L707.974,867.414L468.1,728.922L468.1,451.94L707.974,313.448Z" style="fill:rgb(188,244,245);"/>
                    </g>
                    <g transform="matrix(0.429967,0,0,0.457668,441.87,352.955)">
                        <path d="M707.974,313.448L947.848,451.94L947.848,728.922L707.974,867.414L468.1,728.922L468.1,451.94L707.974,313.448Z" style="fill:rgb(188,244,245);"/>
                    </g>
                    <g transform="matrix(0.429967,0,0,0.457668,132.457,540.113)">
                        <path d="M707.974,313.448L947.848,451.94L947.848,728.922L707.974,867.414L468.1,728.922L468.1,451.94L707.974,313.448Z" style="fill:rgb(188,244,245);"/>
                    </g>
                </g>
                <g id="Normal">
                    <g transform="matrix(0.429967,0,0,0.457668,235.595,352.955)">
                        <path d="M707.974,313.448L947.848,451.94L947.848,728.922L707.974,867.414L468.1,728.922L468.1,451.94L707.974,313.448Z" style="fill:rgb(91,81,232);stroke:rgb(188,244,245);stroke-width:2.25px;"/>
                    </g>
                    <g transform="matrix(0.429967,0,0,0.457668,338.733,163.044)">
                        <path d="M707.974,313.448L947.848,451.94L947.848,728.922L707.974,867.414L468.1,728.922L468.1,451.94L707.974,313.448Z" style="fill:rgb(91,81,232);"/>
                        <path d="M707.974,313.448L947.848,451.94L947.848,728.922L707.974,867.414L468.1,728.922L468.1,451.94L707.974,313.448ZM707.974,316.013L945.522,453.162C945.522,453.162 945.522,727.701 945.522,727.701C945.522,727.701 707.974,864.849 707.974,864.849C707.974,864.849 470.426,727.701 470.426,727.701C470.426,727.701 470.426,453.162 470.426,453.162L707.974,316.013Z" style="fill:rgb(188,244,245);"/>
                    </g>
                    <g transform="matrix(0.429967,0,0,0.457668,29.3191,352.955)">
                        <path d="M707.974,313.448L947.848,451.94L947.848,728.922L707.974,867.414L468.1,728.922L468.1,451.94L707.974,313.448Z" style="fill:rgb(91,81,232);stroke:rgb(188,244,245);stroke-width:2.25px;"/>
                    </g>
                    <g transform="matrix(0.429967,0,0,0.457668,235.595,-26.8779)">
                        <path d="M707.974,313.448L947.848,451.94L947.848,728.922L707.974,867.414L468.1,728.922L468.1,451.94L707.974,313.448Z" style="fill:rgb(91,81,232);"/>
                        <path d="M707.974,313.448L947.848,451.94L947.848,728.922L707.974,867.414L468.1,728.922L468.1,451.94L707.974,313.448ZM707.974,316.013L945.522,453.162C945.522,453.162 945.522,727.701 945.522,727.701C945.522,727.701 707.974,864.849 707.974,864.849C707.974,864.849 470.426,727.701 470.426,727.701C470.426,727.701 470.426,453.162 470.426,453.162L707.974,316.013Z" style="fill:rgb(188,244,245);"/>
                    </g>
                </g>
            </g>
        </g>
    </g>
</svg>
