<?xml version="1.0" encoding="UTF-8" standalone="no"?>
<!DOCTYPE svg PUBLIC "-//W3C//DTD SVG 1.1//EN" "http://www.w3.org/Graphics/SVG/1.1/DTD/svg11.dtd">
<svg width="100%" height="100%" viewBox="0 0 1080 1080" version="1.1" xmlns="http://www.w3.org/2000/svg" xmlns:xlink="http://www.w3.org/1999/xlink" xml:space="preserve" xmlns:serif="http://www.serif.com/" style="fill-rule:evenodd;clip-rule:evenodd;stroke-linecap:round;stroke-linejoin:round;stroke-miterlimit:1.5;">
    <g id="Light">
        <g transform="matrix(0.429967,0,0,0.457668,132.457,163.044)">
            <path d="M707.974,313.448L947.848,451.94L947.848,728.922L707.974,867.414L468.1,728.922L468.1,451.94L707.974,313.448Z" style="fill:rgb(188,244,245);"/>
        </g>
        <g transform="matrix(0.429967,0,0,0.457668,441.87,352.955)">
            <path d="M707.974,313.448L947.848,451.94L947.848,728.922L707.974,867.414L468.1,728.922L468.1,451.94L707.974,313.448Z" style="fill:rgb(188,244,245);"/>
        </g>
        <g transform="matrix(0.429967,0,0,0.457668,132.457,540.113)">
            <path d="M707.974,313.448L947.848,451.94L947.848,728.922L707.974,867.414L468.1,728.922L468.1,451.94L707.974,313.448Z" style="fill:rgb(188,244,245);"/>
        </g>
    </g>
    <g id="Normal">
        <g transform="matrix(0.429967,0,0,0.457668,235.595,352.955)">
            <path d="M707.974,313.448L947.848,451.94L947.848,728.922L707.974,867.414L468.1,728.922L468.1,451.94L707.974,313.448Z" style="fill:rgb(91,81,232);stroke:rgb(188,244,245);stroke-width:2.25px;"/>
        </g>
        <g transform="matrix(0.429967,0,0,0.457668,338.733,163.044)">
            <path d="M707.974,313.448L947.848,451.94L947.848,728.922L707.974,867.414L468.1,728.922L468.1,451.94L707.974,313.448Z" style="fill:rgb(91,81,232);"/>
            <path d="M707.974,313.448L947.848,451.94L947.848,728.922L707.974,867.414L468.1,728.922L468.1,451.94L707.974,313.448ZM707.974,316.013L945.522,453.162C945.522,453.162 945.522,727.701 945.522,727.701C945.522,727.701 707.974,864.849 707.974,864.849C707.974,864.849 470.426,727.701 470.426,727.701C470.426,727.701 470.426,453.162 470.426,453.162L707.974,316.013Z" style="fill:rgb(188,244,245);"/>
        </g>
        <g transform="matrix(0.429967,0,0,0.457668,29.3191,352.955)">
            <path d="M707.974,313.448L947.848,451.94L947.848,728.922L707.974,867.414L468.1,728.922L468.1,451.94L707.974,313.448Z" style="fill:rgb(91,81,232);stroke:rgb(188,244,245);stroke-width:2.25px;"/>
        </g>
        <g transform="matrix(0.429967,0,0,0.457668,235.595,-26.8779)">
            <path d="M707.974,313.448L947.848,451.94L947.848,728.922L707.974,867.414L468.1,728.922L468.1,451.94L707.974,313.448Z" style="fill:rgb(91,81,232);"/>
            <path d="M707.974,313.448L947.848,451.94L947.848,728.922L707.974,867.414L468.1,728.922L468.1,451.94L707.974,313.448ZM707.974,316.013L945.522,453.162C945.522,453.162 945.522,727.701 945.522,727.701C945.522,727.701 707.974,864.849 707.974,864.849C707.974,864.849 470.426,727.701 470.426,727.701C470.426,727.701 470.426,453.162 470.426,453.162L707.974,316.013Z" style="fill:rgb(188,244,245);"/>
        </g>
    </g>
</svg>
