<?xml version="1.0" encoding="UTF-8" standalone="no"?>
<!DOCTYPE svg PUBLIC "-//W3C//DTD SVG 1.1//EN" "http://www.w3.org/Graphics/SVG/1.1/DTD/svg11.dtd">
<svg width="100%" height="100%" viewBox="0 0 48 48" version="1.1" xmlns="http://www.w3.org/2000/svg" xmlns:xlink="http://www.w3.org/1999/xlink" xml:space="preserve" xmlns:serif="http://www.serif.com/" style="fill-rule:evenodd;clip-rule:evenodd;stroke-linejoin:round;stroke-miterlimit:2;">
    <path d="M21.35,42L21.35,30.75L24.35,30.75L24.35,34.9L42,34.9L42,37.9L24.35,37.9L24.35,42L21.35,42ZM6,37.9L6,34.9L18.35,34.9L18.35,37.9L6,37.9ZM15.35,29.6L15.35,25.5L6,25.5L6,22.5L15.35,22.5L15.35,18.3L18.35,18.3L18.35,29.6L15.35,29.6ZM21.35,25.5L21.35,22.5L42,22.5L42,25.5L21.35,25.5ZM29.65,17.25L29.65,6L32.65,6L32.65,10.1L42,10.1L42,13.1L32.65,13.1L32.65,17.25L29.65,17.25ZM6,13.1L6,10.1L26.65,10.1L26.65,13.1L6,13.1Z" style="fill:white;fill-rule:nonzero;"/>
</svg>
